<svg xmlns="http://www.w3.org/2000/svg" viewBox="0 0 192 192">
  <defs>
    <linearGradient id="bg" x1="0%" y1="0%" x2="100%" y2="100%">
      <stop offset="0%" stop-color="#FF6B9D"/>
      <stop offset="100%" stop-color="#FFBF47"/>
    </linearGradient>
  </defs>
  <rect width="192" height="192" rx="42" fill="url(#bg)"/>
  <!-- Fork -->
  <rect x="54" y="36" width="7" height="36" rx="3.5" fill="white"/>
  <rect x="65" y="36" width="7" height="36" rx="3.5" fill="white"/>
  <rect x="76" y="36" width="7" height="36" rx="3.5" fill="white"/>
  <path d="M54 70 Q52 91 64 97 L64 154 Q64 158 67.5 158 Q71 158 71 154 L71 97 Q83 91 83 70 Z" fill="white"/>
  <!-- Open book -->
  <rect x="98" y="72" width="32" height="56" rx="4" fill="white"/>
  <rect x="134" y="72" width="32" height="56" rx="4" fill="white"/>
  <rect x="127" y="71" width="9" height="58" rx="3" fill="rgba(255,255,255,0.8)"/>
  <rect x="102" y="86" width="22" height="4" rx="2" fill="rgba(255,107,157,0.5)"/>
  <rect x="102" y="96" width="16" height="4" rx="2" fill="rgba(255,107,157,0.35)"/>
  <rect x="102" y="106" width="20" height="4" rx="2" fill="rgba(255,107,157,0.5)"/>
  <rect x="138" y="86" width="22" height="4" rx="2" fill="rgba(255,107,157,0.5)"/>
  <rect x="138" y="96" width="16" height="4" rx="2" fill="rgba(255,107,157,0.35)"/>
  <rect x="138" y="106" width="20" height="4" rx="2" fill="rgba(255,107,157,0.5)"/>
</svg>
